<svg width="137" height="20" viewBox="0 0 137 20" fill="none" xmlns="http://www.w3.org/2000/svg">
<path d="M3.84236 12.5889V19.6415H0V0.358511H7.86535C10.1341 0.358511 11.8747 0.905857 13.0925 1.99781C14.3103 3.08976 14.9179 4.58675 14.9179 6.48878C14.9179 8.3908 14.3103 9.85769 13.0925 10.9524C11.8747 12.0443 10.1423 12.5917 7.89272 12.5917H3.84236V12.5889ZM3.84236 3.8971V9.07499H7.79694C9.9179 9.07499 10.9797 8.21292 10.9797 6.48604C10.9797 4.75917 9.9179 3.8971 7.79694 3.8971H3.84236Z" fill="#050E0E" style="fill:#050E0E;fill:color(display-p3 0.0196 0.0549 0.0549);fill-opacity:1;"/>
<path d="M26.8528 0C28.7986 0 30.5473 0.429666 32.0936 1.289C33.6398 2.14833 34.844 3.33881 35.7033 4.86316C36.5627 6.38752 36.9923 8.10071 36.9923 10C36.9923 11.8993 36.5627 13.6125 35.7033 15.1368C34.844 16.6612 33.6426 17.8517 32.0936 18.711C30.5473 19.5703 28.7986 20 26.8528 20C25.3831 20 24.0203 19.7482 22.7614 19.2419C21.5025 18.7384 20.4324 18.046 19.5512 17.1702C18.67 16.2945 17.9776 15.2354 17.4795 13.9956C16.9787 12.7559 16.7296 11.4258 16.7296 10C16.7296 8.57416 16.9787 7.24412 17.4795 6.00438C17.9803 4.76464 18.67 3.70553 19.5512 2.82978C20.4324 1.95402 21.5025 1.26163 22.7614 0.758073C24.0203 0.254516 25.3831 0 26.8528 0ZM26.8528 3.69184C25.0712 3.69184 23.607 4.2775 22.4603 5.44882C21.3136 6.62014 20.7389 8.13629 20.7389 10C20.7389 11.8637 21.3136 13.3826 22.4603 14.5512C23.607 15.7225 25.0712 16.3082 26.8528 16.3082C28.6344 16.3082 30.1095 15.7225 31.2534 14.5512C32.3974 13.3799 32.9694 11.8637 32.9694 10C32.9694 8.13629 32.3974 6.61741 31.2534 5.44882C30.1095 4.2775 28.6426 3.69184 26.8528 3.69184Z" fill="#050E0E" style="fill:#050E0E;fill:color(display-p3 0.0196 0.0549 0.0549);fill-opacity:1;"/>
<path d="M48.1555 0.358511C50.4324 0.358511 52.1784 0.870279 53.3963 1.89381C54.6141 2.91735 55.2217 4.36234 55.2217 6.22605C55.2217 7.81335 54.699 9.1133 53.6508 10.1232C52.6026 11.133 51.1576 11.7296 49.3131 11.913L55.249 19.6415H50.5939L44.9754 11.9704H43.8451V19.6415H40.0027V0.358511H48.1555ZM43.8451 8.62343H48.087C50.208 8.62343 51.2698 7.8243 51.2698 6.22605C51.2698 4.6278 50.208 3.8971 48.087 3.8971H43.8451V8.62343Z" fill="#050E0E" style="fill:#050E0E;fill:color(display-p3 0.0196 0.0549 0.0549);fill-opacity:1;"/>
<path d="M66.59 3.95457V19.6415H62.7477V3.95457H56.7707V0.358511H72.5698V3.95457H66.59Z" fill="#050E0E" style="fill:#050E0E;fill:color(display-p3 0.0196 0.0549 0.0549);fill-opacity:1;"/>
<path d="M92.0635 19.6415V5.0821L87.2989 17.7805H83.2348L78.4702 5.19157V19.6415H74.6278V0.358511H80.2627L85.2764 13.3744L90.2737 0.358511H95.9086V19.6415H92.0635Z" fill="#050E0E" style="fill:#050E0E;fill:color(display-p3 0.0196 0.0549 0.0549);fill-opacity:1;"/>
<path d="M117.6 19.6415H113.495L111.814 15.1505H103.591L101.91 19.6415H97.9009L105.411 0.358511H110.093L117.6 19.6415ZM110.493 11.6119L107.709 4.15982L104.912 11.6119H110.493Z" fill="#050E0E" style="fill:#050E0E;fill:color(display-p3 0.0196 0.0549 0.0549);fill-opacity:1;"/>
<path d="M136.836 19.6415H133.227L123.448 6.76245L123.435 19.6415H119.592V0.358511H123.188L132.98 13.2375V0.358511H136.836V19.6415Z" fill="#050E0E" style="fill:#050E0E;fill:color(display-p3 0.0196 0.0549 0.0549);fill-opacity:1;"/>
</svg>
