<svg width="20" height="20" viewBox="0 0 20 20" fill="none" xmlns="http://www.w3.org/2000/svg">
<g clip-path="url(#clip0_600_494)">
<path d="M0 20L1.43495 14.6692C0.2777 12.5926 -0.0899718 10.1694 0.399408 7.84424C0.888789 5.51906 2.20239 3.4479 4.09918 2.01082C5.99596 0.573734 8.34868 -0.132879 10.7256 0.0206447C13.1026 0.174168 15.3443 1.17753 17.0394 2.84661C18.7345 4.5157 19.7694 6.73854 19.9541 9.10725C20.1387 11.476 19.4608 13.8316 18.0447 15.742C16.6286 17.6524 14.5694 18.9894 12.2448 19.5076C9.92021 20.0258 7.48625 19.6904 5.38955 18.5631L0 20ZM5.64943 16.5683L5.98274 16.7655C7.50142 17.6633 9.27522 18.0349 11.0277 17.8222C12.7802 17.6096 14.4129 16.8246 15.6715 15.5898C16.9301 14.3549 17.7437 12.7394 17.9857 10.9951C18.2277 9.2508 17.8844 7.47565 17.0093 5.94627C16.1342 4.4169 14.7765 3.21922 13.1478 2.53987C11.519 1.86052 9.71075 1.73766 8.0047 2.19045C6.29864 2.64323 4.79066 3.64622 3.71576 5.04311C2.64086 6.44 2.05942 8.15233 2.06204 9.91325C2.06061 11.3733 2.46544 12.8052 3.23147 14.0494L3.4405 14.3931L2.63828 17.3684L5.64943 16.5683Z" fill="#050E0E" style="fill:#050E0E;fill:color(display-p3 0.0196 0.0549 0.0549);fill-opacity:1;"/>
<path fill-rule="evenodd" clip-rule="evenodd" d="M13.7394 11.2813C13.544 11.1241 13.3152 11.0135 13.0704 10.9578C12.8257 10.9022 12.5714 10.903 12.327 10.9601C11.9598 11.1123 11.7225 11.6871 11.4853 11.9744C11.4352 12.0433 11.3617 12.0917 11.2785 12.1103C11.1953 12.129 11.1081 12.1168 11.0333 12.0759C9.68894 11.5507 8.56207 10.5875 7.83574 9.34287C7.77379 9.26521 7.74447 9.16659 7.75395 9.06779C7.76344 8.96899 7.81098 8.87771 7.88658 8.81318C8.15122 8.55186 8.34553 8.2282 8.45153 7.87213C8.47506 7.47937 8.38485 7.08815 8.19165 6.74512C8.04229 6.2642 7.75804 5.83597 7.37249 5.51104C7.17363 5.42183 6.95314 5.39192 6.73761 5.42491C6.52209 5.45791 6.32074 5.5524 6.15786 5.697C5.87509 5.94034 5.65064 6.24385 5.50105 6.58519C5.35146 6.92652 5.28053 7.29697 5.2935 7.66926C5.29437 7.87833 5.32093 8.0865 5.37259 8.28912C5.50377 8.77594 5.70551 9.24104 5.97143 9.66971C6.16328 9.99808 6.37261 10.316 6.59851 10.622C7.33268 11.6273 8.25555 12.4809 9.31589 13.1353C9.84798 13.4678 10.4167 13.7382 11.0107 13.9411C11.6278 14.2201 12.3092 14.3272 12.9824 14.251C13.3659 14.1931 13.7294 14.042 14.0407 13.8111C14.352 13.5802 14.6016 13.2765 14.7676 12.9268C14.8651 12.7155 14.8947 12.4793 14.8523 12.2506C14.7506 11.7829 14.1236 11.5067 13.7394 11.2813Z" fill="#050E0E" style="fill:#050E0E;fill:color(display-p3 0.0196 0.0549 0.0549);fill-opacity:1;"/>
</g>
<defs>
<clipPath id="clip0_600_494">
<rect width="20" height="20" fill="white" style="fill:white;fill:white;fill-opacity:1;"/>
</clipPath>
</defs>
</svg>
