<svg width="276" height="34" viewBox="0 0 276 34" fill="none" xmlns="http://www.w3.org/2000/svg">
<path d="M4.61214 18.1067V26.5698H0V3.43021H9.44109C12.1644 3.43021 14.2536 4.08703 15.7154 5.39737C17.1773 6.70772 17.9065 8.50411 17.9065 10.7865C17.9065 13.069 17.1773 14.8292 15.7154 16.1429C14.2536 17.4532 12.1742 18.11 9.47394 18.11H4.61214V18.1067ZM4.61214 7.67652V13.89H9.35896C11.9048 13.89 13.1794 12.8555 13.1794 10.7833C13.1794 8.711 11.9048 7.67652 9.35896 7.67652H4.61214Z" fill="#2D3636" style="fill:#2D3636;fill:color(display-p3 0.1765 0.2118 0.2118);fill-opacity:1;"/>
<path d="M32.2324 3C34.5681 3 36.6672 3.5156 38.5232 4.5468C40.3792 5.578 41.8246 7.00657 42.8561 8.8358C43.8876 10.665 44.4033 12.7209 44.4033 15C44.4033 17.2791 43.8876 19.335 42.8561 21.1642C41.8246 22.9934 40.3825 24.422 38.5232 25.4532C36.6672 26.4844 34.5681 27 32.2324 27C30.4684 27 28.8324 26.6979 27.3213 26.0903C25.8102 25.486 24.5258 24.6552 23.468 23.6043C22.4103 22.5534 21.5792 21.2824 20.9813 19.7947C20.3801 18.3071 20.0812 16.711 20.0812 15C20.0812 13.289 20.3801 11.6929 20.9813 10.2053C21.5824 8.71757 22.4103 7.44663 23.468 6.39573C24.5258 5.34483 25.8102 4.51396 27.3213 3.90969C28.8324 3.30542 30.4684 3 32.2324 3ZM32.2324 7.43021C30.0939 7.43021 28.3364 8.133 26.96 9.53859C25.5836 10.9442 24.8937 12.7635 24.8937 15C24.8937 17.2365 25.5836 19.0591 26.96 20.4614C28.3364 21.867 30.0939 22.5698 32.2324 22.5698C34.371 22.5698 36.1416 21.867 37.5147 20.4614C38.8878 19.0558 39.5744 17.2365 39.5744 15C39.5744 12.7635 38.8878 10.9409 37.5147 9.53859C36.1416 8.133 34.3808 7.43021 32.2324 7.43021Z" fill="#2D3636" style="fill:#2D3636;fill:color(display-p3 0.1765 0.2118 0.2118);fill-opacity:1;"/>
<path d="M57.8029 3.43021C60.536 3.43021 62.6318 4.04434 64.0936 5.27258C65.5555 6.50082 66.2847 8.23481 66.2847 10.4713C66.2847 12.376 65.6573 13.936 64.3991 15.1478C63.141 16.3596 61.4065 17.0755 59.1924 17.2956L66.3176 26.5698H60.7298L53.9857 17.3645H52.629V26.5698H48.0168V3.43021H57.8029ZM52.629 13.3481H57.7207C60.2666 13.3481 61.5412 12.3892 61.5412 10.4713C61.5412 8.55337 60.2666 7.67652 57.7207 7.67652H52.629V13.3481Z" fill="#2D3636" style="fill:#2D3636;fill:color(display-p3 0.1765 0.2118 0.2118);fill-opacity:1;"/>
<path d="M79.9306 7.74548V26.5698H75.3185V7.74548H68.144V3.43021H87.1084V7.74548H79.9306Z" fill="#2D3636" style="fill:#2D3636;fill:color(display-p3 0.1765 0.2118 0.2118);fill-opacity:1;"/>
<path d="M110.507 26.5698V9.09852L104.788 24.3366H99.91L94.1908 9.22989V26.5698H89.5787V3.43021H96.3425L102.361 19.0493L108.359 3.43021H115.123V26.5698H110.507Z" fill="#2D3636" style="fill:#2D3636;fill:color(display-p3 0.1765 0.2118 0.2118);fill-opacity:1;"/>
<path d="M141.16 26.5698H136.232L134.215 21.1806H124.344L122.327 26.5698H117.514L126.528 3.43021H132.149L141.16 26.5698ZM132.629 16.9343L129.288 7.99179L125.93 16.9343H132.629Z" fill="#2D3636" style="fill:#2D3636;fill:color(display-p3 0.1765 0.2118 0.2118);fill-opacity:1;"/>
<path d="M164.25 26.5698H159.917L148.18 11.1149L148.163 26.5698H143.551V3.43021H147.868L159.621 18.8851V3.43021H164.25V26.5698Z" fill="#2D3636" style="fill:#2D3636;fill:color(display-p3 0.1765 0.2118 0.2118);fill-opacity:1;"/>
<path d="M188.714 17.616V14.658H199.118V27H196.024L195.99 23.362C194.528 25.606 191.638 27.34 188.102 27.34C181.778 27.34 176.712 22.41 176.712 14.964C176.712 7.45 182.05 2.69 188.646 2.69C193.746 2.69 198.234 5.512 199.016 10.17H195.65C194.8 7.45 192.182 5.716 188.646 5.716C183.784 5.716 180.248 9.252 180.248 14.964C180.248 20.642 183.716 24.314 188.476 24.314C192.25 24.314 195.65 21.628 195.956 17.718V17.616H188.714ZM207.126 17.004V27H203.93V9.388H207.092V12.278C207.5 11.598 207.942 10.986 208.622 10.442C209.676 9.592 210.73 9.252 212.192 9.252C212.6 9.252 213.008 9.286 213.314 9.354V12.448C212.498 12.414 212.124 12.414 211.716 12.414C209.778 12.414 207.126 13.264 207.126 17.004ZM223.933 27.374C218.969 27.374 215.025 23.77 215.025 18.058C215.025 12.618 219.003 8.98 223.933 8.98C228.931 8.98 232.841 12.55 232.841 18.058C232.841 23.702 228.863 27.374 223.933 27.374ZM223.933 24.552C227.231 24.552 229.577 21.934 229.577 18.058C229.577 14.386 227.197 11.802 223.933 11.802C220.635 11.802 218.289 14.386 218.289 18.058C218.289 21.9 220.635 24.552 223.933 24.552ZM248.058 27V24.586C246.97 26.354 245.134 27.374 242.754 27.374C239.014 27.374 236.43 25.028 236.43 20.506V9.388H239.626V20.064C239.626 23.022 241.258 24.586 243.672 24.586C245.882 24.586 247.99 22.886 247.99 19.418V9.388H251.186V27H248.058ZM265.167 27.374C262.447 27.374 260.407 26.014 259.421 24.28V33.46H256.225V9.388H259.421V12.04C260.373 10.34 262.379 8.98 265.235 8.98C269.689 8.98 273.361 12.176 273.361 18.058C273.361 24.076 269.587 27.374 265.167 27.374ZM264.725 24.654C267.683 24.654 270.029 22.206 270.029 18.058C270.029 13.978 267.683 11.7 264.725 11.7C261.699 11.7 259.353 14.012 259.353 18.058C259.353 22.274 261.801 24.654 264.725 24.654Z" fill="#2D3636" style="fill:#2D3636;fill:color(display-p3 0.1765 0.2118 0.2118);fill-opacity:1;"/>
</svg>
