<svg width="18" height="18" viewBox="0 0 18 18" fill="none" xmlns="http://www.w3.org/2000/svg">
<path d="M4.08606 17.6049V5.98565H0.22744V17.6049H4.08647H4.08606ZM2.15756 4.39951C3.50286 4.39951 4.3404 3.50729 4.3404 2.39227C4.31522 1.25184 3.50286 0.384521 2.18314 0.384521C0.86252 0.384521 0 1.25184 0 2.39217C0 3.50719 0.837237 4.39941 2.13228 4.39941H2.15726L2.15756 4.39951ZM6.22187 17.6049H10.0802V11.1169C10.0802 10.7701 10.1054 10.4224 10.2073 10.1747C10.4861 9.48053 11.121 8.76202 12.1872 8.76202C13.583 8.76202 14.1418 9.82744 14.1418 11.3896V17.6049H18V10.9428C18 7.37399 16.0967 5.71325 13.5581 5.71325C11.4768 5.71325 10.5627 6.87757 10.0548 7.67059H10.0805V5.98605H6.22207C6.27243 7.07607 6.22177 17.6053 6.22177 17.6053L6.22187 17.6049Z" fill="#2D3636" style="fill:#2D3636;fill:color(display-p3 0.1765 0.2118 0.2118);fill-opacity:1;"/>
</svg>
