<svg width="18" height="14" viewBox="0 0 18 14" fill="none" xmlns="http://www.w3.org/2000/svg">
<path fill-rule="evenodd" clip-rule="evenodd" d="M16.0328 1.05528C16.8088 1.26485 17.4187 1.87633 17.6249 2.65145C18 4.05815 18 6.99499 18 6.99499C18 6.99499 18 9.93183 17.6249 11.3385C17.4158 12.1165 16.8059 12.728 16.0328 12.9347C14.6297 13.3108 9 13.3108 9 13.3108C9 13.3108 3.37321 13.3108 1.96723 12.9347C1.19122 12.7251 0.581292 12.1136 0.375119 11.3385C0 9.93183 0 6.99499 0 6.99499C0 6.99499 0 4.05815 0.375119 2.65145C0.584155 1.87346 1.19408 1.26197 1.96723 1.05528C3.37321 0.679199 9 0.679199 9 0.679199C9 0.679199 14.6297 0.679199 16.0328 1.05528ZM11.8778 6.99499L7.20172 9.70217V4.28781L11.8778 6.99499Z" fill="#2D3636" style="fill:#2D3636;fill:color(display-p3 0.1765 0.2118 0.2118);fill-opacity:1;"/>
</svg>
