<?xml version="1.0" encoding="UTF-8"?>
<svg id="Layer_1" data-name="Layer 1" xmlns="http://www.w3.org/2000/svg" viewBox="0 0 300 300">
  <defs>
    <style>
      .cls-1 {
        fill: #993130;
      }

      .cls-2 {
        fill: #37449c;
      }
    </style>
  </defs>
  <g>
    <path class="cls-1" d="M157.92,160.45c-4.88,7.38-22.9,34.11-27.24,41.82-1.17,2.02-3.77,2.45-5.85.95l-5.66-4.08c-2.09-1.58-2.51-4.18-.95-5.85,6-6.64,25.13-32.73,30.65-39.79l8.91-11.87c2.99-4.15,5.97-8.39,8.79-12.6-1.64-6.49-13.44-6.82-17.27-6.78-.74.04-1.34-.53-1.36-1.2.04-.26.02-.42-.02-.66-.09-.57.23-1.12.78-1.38,14.65-6.3,24.54.18,24.54.18,0,0,9.44,6.8,10.21,7.43.57.41.62,1.73.6,2.15l.04.24c.12.73.68,3.64,1.9,4.53.38.27,1.5.51,2.43.6l.88-1.23c.54-.76,1.68-.94,2.44-.4l3.59,2.58c.76.54.94,1.68.31,2.45l-6.73,9.35c-.54.76-1.68.94-2.44.4l-3.59-2.58c-.76-.54-.94-1.68-.4-2.44l.94-1.4c-2.18-3.65-6.16-4.58-8.46-4.38-2.81,3.71-5.55,7.4-8.27,11.18l-8.76,12.76Z"/>
    <path class="cls-1" d="M137.11,135.3c1.96-4.15,1.73-9.13-1.02-13.17-3.06-4.6-8.46-6.63-13.59-5.59-.69.12-.94.99-.44,1.42l6.09,5.52-1.46,8.06-7.45,1.39-5.79-6.23c-.49-.51-1.37-.26-1.51.47-.66,3.48.14,7.23,2.47,10.35,2.81,3.72,7.24,5.56,11.57,5.21.76-.02,1.54.29,1.99.96,9.57,13.54,29.64,43.1,38.33,57.31,2.03,3.4,6.77,4.05,10.13,1.76,3.37-2.29,4.4-6.87,2.08-10.07-10.05-13.21-32.17-41.23-41.34-55.11-.36-.74-.45-1.59-.07-2.27ZM174.09,199.3c-1.35.92-3.12.58-4.04-.77-.92-1.35-.58-3.12.77-4.04s3.12-.58,4.04.77c.84,1.33.5,3.11-.77,4.04Z"/>
  </g>
  <path class="cls-2" d="M47.94,219.7c-6.42,0-12.29-.76-17.6-2.28-5.31-1.52-9.98-3.61-14.01-6.3-4.03-2.68-7.35-5.69-9.98-9.02-2.63-3.33-4.47-6.8-5.52-10.42l19.96-6.13c1.52,4.32,4.49,8.11,8.93,11.38,4.44,3.27,9.92,4.96,16.46,5.08,7.59,0,13.6-1.58,18.04-4.73,4.43-3.15,6.65-7.3,6.65-12.43,0-4.67-1.87-8.49-5.6-11.47-3.74-2.98-8.76-5.28-15.06-6.92l-15.06-3.85c-5.72-1.52-10.89-3.73-15.5-6.65-4.61-2.92-8.23-6.6-10.86-11.03-2.63-4.44-3.94-9.69-3.94-15.76,0-11.44,3.73-20.34,11.21-26.7,7.47-6.36,18.15-9.55,32.05-9.55,7.82,0,14.68,1.2,20.58,3.59,5.89,2.39,10.77,5.66,14.62,9.81,3.85,4.15,6.71,8.84,8.58,14.1l-19.61,6.3c-1.75-4.67-4.79-8.52-9.11-11.56-4.32-3.03-9.69-4.55-16.11-4.55s-11.88,1.58-15.67,4.73c-3.8,3.15-5.69,7.53-5.69,13.13,0,4.55,1.49,8.08,4.47,10.59,2.98,2.51,7.03,4.41,12.17,5.69l15.06,3.68c10.97,2.69,19.5,7.3,25.57,13.83,6.07,6.54,9.11,13.78,9.11,21.71,0,7.01-1.69,13.19-5.08,18.56-3.39,5.37-8.38,9.57-14.97,12.61-6.6,3.04-14.62,4.55-24.08,4.55Z"/>
  <path class="cls-2" d="M220.38,219.7v-126.79h78.79v19.2h-57.78v35.5h49.45v19.2h-49.45v52.89h-21.01Z"/>
</svg>