<?xml version="1.0" encoding="UTF-8"?>
<svg id="Layer_1" data-name="Layer 1" xmlns="http://www.w3.org/2000/svg" viewBox="0 0 300 300">
  <defs>
    <style>
      .cls-1 {
        fill: #fff;
      }
    </style>
  </defs>
  <path class="cls-1" d="M163.87,150.88c-16.68,25.2-78.22,116.5-93.01,142.82-4,6.91-12.87,8.36-19.97,3.25l-19.35-13.93c-7.14-5.39-8.58-14.26-3.25-19.97,20.51-22.69,85.82-111.76,104.67-135.89l30.42-40.53c10.22-14.19,20.39-28.65,30.01-43.02-5.59-22.15-45.92-23.28-58.99-23.14-2.54.13-4.57-1.82-4.65-4.08.14-.88.05-1.43-.08-2.26-.32-1.94.8-3.83,2.65-4.7,50.02-21.51,83.79.61,83.79.61,0,0,32.24,23.22,34.87,25.36,1.93,1.39,2.1,5.92,2.05,7.35l.14.83c.41,2.5,2.31,12.43,6.5,15.45,1.29.93,5.12,1.73,8.31,2.07l3.02-4.19c1.86-2.58,5.74-3.21,8.32-1.35l12.25,8.82c2.58,1.86,3.21,5.74,1.08,8.36l-22.99,31.92c-1.86,2.58-5.74,3.21-8.32,1.35l-12.25-8.82c-2.58-1.86-3.21-5.74-1.35-8.32l3.21-4.79c-7.43-12.45-21.05-15.65-28.9-14.94-9.61,12.66-18.95,25.28-28.24,38.18l-29.92,43.58Z"/>
  <path class="cls-1" d="M92.8,64.99c6.69-14.17,5.92-31.19-3.48-44.99C78.87,4.29,60.45-2.63,42.9.9c-2.37.41-3.22,3.39-1.49,4.86l20.81,18.86-4.99,27.54-25.45,4.75-19.77-21.26c-1.67-1.75-4.69-.89-5.16,1.59-2.25,11.87.47,24.68,8.45,35.35,9.6,12.69,24.71,18.99,39.52,17.79,2.59-.08,5.24.99,6.81,3.29,32.7,46.24,101.22,147.18,130.91,195.71,6.95,11.61,23.12,13.82,34.61,5.99,11.49-7.83,15.03-23.46,7.1-34.4-34.34-45.12-109.86-140.81-141.19-188.22-1.24-2.52-1.54-5.44-.24-7.77ZM219.09,283.56c-4.6,3.13-10.67,1.98-13.8-2.62-3.13-4.6-1.98-10.67,2.62-13.8,4.6-3.13,10.67-1.98,13.8,2.62,2.86,4.55,1.7,10.62-2.62,13.8Z"/>
</svg>