<?xml version="1.0" encoding="UTF-8"?>
<svg id="Layer_1" data-name="Layer 1" xmlns="http://www.w3.org/2000/svg" viewBox="0 0 400 267.66">
  <defs>
    <style>
      .cls-1 {
        fill: #993130;
      }

      .cls-2 {
        fill: #37449c;
      }
    </style>
  </defs>
  <path class="cls-1" d="M23.62,204.58c-3.22,0-6.16-.38-8.82-1.14-2.66-.76-5-1.81-7.02-3.16-2.02-1.35-3.69-2.85-5-4.52-1.32-1.67-2.24-3.41-2.77-5.22l10.01-3.07c.76,2.17,2.25,4.07,4.48,5.71,2.22,1.64,4.97,2.49,8.25,2.55,3.8,0,6.82-.79,9.04-2.37,2.22-1.58,3.34-3.66,3.34-6.23,0-2.34-.94-4.26-2.81-5.75-1.87-1.49-4.39-2.65-7.55-3.47l-7.55-1.93c-2.87-.76-5.46-1.87-7.77-3.34-2.31-1.46-4.13-3.31-5.44-5.53-1.32-2.22-1.98-4.86-1.98-7.9,0-5.74,1.87-10.2,5.62-13.39,3.74-3.19,9.1-4.79,16.07-4.79,3.92,0,7.36.6,10.32,1.8,2.96,1.2,5.4,2.84,7.33,4.92,1.93,2.08,3.36,4.43,4.3,7.07l-9.83,3.16c-.88-2.34-2.4-4.27-4.57-5.79-2.17-1.52-4.86-2.28-8.08-2.28s-5.96.79-7.86,2.37c-1.9,1.58-2.85,3.78-2.85,6.58,0,2.28.75,4.05,2.24,5.31,1.49,1.26,3.53,2.21,6.1,2.85l7.55,1.84c5.5,1.35,9.77,3.66,12.82,6.94,3.04,3.28,4.57,6.91,4.57,10.89,0,3.51-.85,6.62-2.55,9.31-1.7,2.69-4.2,4.8-7.51,6.32-3.31,1.52-7.33,2.28-12.07,2.28Z"/>
  <g>
    <path class="cls-2" d="M0,262.57v-43.71h14.24c2.83,0,5.34.56,7.52,1.69,2.19,1.12,3.89,2.69,5.12,4.68,1.23,2,1.84,4.29,1.84,6.87s-.67,4.87-2,6.87c-1.33,2-3.14,3.57-5.43,4.71-2.29,1.15-4.87,1.72-7.74,1.72H5.31v17.17H0ZM5.31,240.53h9.68c1.58,0,3-.36,4.25-1.09,1.25-.73,2.26-1.73,3.03-3,.77-1.27,1.16-2.72,1.16-4.34,0-2.5-.86-4.53-2.59-6.09-1.73-1.56-3.96-2.34-6.71-2.34H5.31v16.86ZM24.66,262.57l-10.49-17.92,4.18-2.75,12.11,20.67h-5.81Z"/>
    <path class="cls-2" d="M39.71,262.57v-43.71h25.85v4.81h-20.54v14.11h18.73v4.75h-18.73v15.24h20.67v4.81h-25.98Z"/>
    <path class="cls-2" d="M77.3,262.57v-43.71h5.49l15.11,22.35,15.11-22.35h5.43v43.71h-5.24v-35.22l-15.3,22.79-15.3-22.67v35.09h-5.31Z"/>
    <path class="cls-2" d="M149.36,263.32c-4.21,0-7.93-.96-11.18-2.87-3.25-1.91-5.79-4.58-7.62-7.99-1.83-3.41-2.75-7.33-2.75-11.74s.91-8.38,2.72-11.77c1.81-3.39,4.32-6.05,7.52-7.96,3.2-1.91,6.91-2.87,11.11-2.87s7.92.97,11.15,2.9c3.23,1.94,5.73,4.6,7.52,7.99,1.79,3.39,2.69,7.3,2.69,11.71s-.9,8.33-2.69,11.74c-1.79,3.41-4.28,6.08-7.46,7.99-3.18,1.92-6.86,2.87-11.02,2.87ZM149.36,258.51c3.12,0,5.87-.76,8.24-2.28,2.37-1.52,4.24-3.61,5.59-6.28,1.35-2.66,2.03-5.75,2.03-9.24s-.69-6.52-2.06-9.21c-1.37-2.68-3.26-4.79-5.65-6.31-2.39-1.52-5.17-2.28-8.34-2.28s-5.89.76-8.3,2.28c-2.41,1.52-4.31,3.62-5.68,6.31-1.37,2.69-2.06,5.76-2.06,9.21s.69,6.58,2.06,9.24c1.37,2.66,3.29,4.76,5.74,6.28,2.46,1.52,5.27,2.28,8.43,2.28Z"/>
    <path class="cls-2" d="M179.83,262.57v-43.71h13.3c4.12,0,7.75.93,10.9,2.78,3.14,1.85,5.61,4.42,7.4,7.71,1.79,3.29,2.69,7.08,2.69,11.37s-.9,8.01-2.69,11.3c-1.79,3.29-4.26,5.87-7.4,7.74-3.14,1.87-6.77,2.81-10.9,2.81h-13.3ZM185.14,257.7h7.99c2.21,0,4.25-.43,6.12-1.28,1.87-.85,3.53-2.07,4.96-3.65,1.44-1.58,2.56-3.4,3.37-5.46.81-2.06,1.22-4.25,1.22-6.59s-.41-4.53-1.22-6.59c-.81-2.06-1.94-3.88-3.37-5.46-1.44-1.58-3.09-2.8-4.96-3.65-1.87-.85-3.91-1.28-6.12-1.28h-7.99v33.97Z"/>
    <path class="cls-2" d="M223.42,262.57v-43.71h25.85v4.81h-20.54v14.11h18.73v4.75h-18.73v15.24h20.67v4.81h-25.98Z"/>
    <path class="cls-2" d="M261.01,262.57v-43.71h5.31v38.9h20.61v4.81h-25.91Z"/>
    <path class="cls-2" d="M294.1,262.57v-43.71h5.31v43.71h-5.31Z"/>
    <path class="cls-2" d="M311.65,262.57v-43.71h5.37l26.04,35.09v-35.09h5.31v43.71h-5.31l-26.1-35.28v35.28h-5.31Z"/>
    <path class="cls-2" d="M380.39,263.32c-4.45,0-8.39-.97-11.8-2.9-3.41-1.94-6.09-4.6-8.02-7.99-1.94-3.39-2.9-7.27-2.9-11.65s.97-8.38,2.9-11.77c1.94-3.39,4.61-6.06,8.02-7.99,3.41-1.94,7.35-2.9,11.8-2.9,2.33,0,4.6.38,6.81,1.16,2.21.77,4.22,1.82,6.06,3.15,1.83,1.33,3.31,2.85,4.43,4.56l-4.18,2.87c-.83-1.33-1.96-2.53-3.37-3.59-1.42-1.06-2.97-1.88-4.65-2.47-1.69-.58-3.38-.87-5.09-.87-3.37,0-6.37.76-8.99,2.28-2.62,1.52-4.68,3.61-6.18,6.28-1.5,2.66-2.25,5.77-2.25,9.3s.74,6.46,2.22,9.15c1.48,2.68,3.54,4.8,6.18,6.34,2.64,1.54,5.65,2.31,9.02,2.31,2.83,0,5.34-.59,7.52-1.78,2.19-1.19,3.9-2.83,5.15-4.93,1.25-2.1,1.87-4.53,1.87-7.27l5.06-.38c0,3.83-.83,7.17-2.5,10.02-1.67,2.85-3.98,5.08-6.93,6.68-2.96,1.6-6.35,2.4-10.18,2.4ZM384.2,244.84v-4.56h15.8v4.12l-2.5.44h-13.3Z"/>
  </g>
  <path class="cls-1" d="M81.3,204.76c-4.86,0-9.12-.98-12.77-2.94-3.66-1.96-6.5-4.73-8.52-8.3-2.02-3.57-3.03-7.73-3.03-12.47v-38.98h10.18v38.98c0,2.87.6,5.37,1.8,7.51,1.2,2.14,2.88,3.8,5.05,5,2.16,1.2,4.65,1.8,7.46,1.8s5.4-.6,7.59-1.8c2.19-1.2,3.88-2.87,5.05-5,1.17-2.14,1.76-4.64,1.76-7.51v-38.98h10.18v38.98c0,4.74-1.01,8.9-3.03,12.47-2.02,3.57-4.89,6.34-8.6,8.3-3.72,1.96-8.09,2.94-13.13,2.94Z"/>
  <path class="cls-1" d="M120.63,203.53v-61.46h21.69c4.21,0,7.93.82,11.15,2.46,3.22,1.64,5.74,3.91,7.55,6.8,1.81,2.9,2.72,6.25,2.72,10.05s-.95,7.17-2.85,10.1c-1.9,2.93-4.52,5.22-7.86,6.89-3.34,1.67-7.11,2.5-11.33,2.5h-10.89v22.65h-10.18ZM130.82,171.48h11.94c1.99,0,3.76-.44,5.31-1.32,1.55-.88,2.81-2.08,3.78-3.6.97-1.52,1.45-3.25,1.45-5.18,0-2.93-1.05-5.33-3.16-7.2-2.11-1.87-4.83-2.81-8.17-2.81h-11.15v20.11ZM154.7,203.53l-14.4-24.93,7.9-5.44,18,30.38h-11.5Z"/>
  <path class="cls-1" d="M177.44,203.53v-61.46h37.84v9.31h-27.66v16.33h24.41v9.13h-24.41v17.38h27.92v9.31h-38.1Z"/>
  <path class="cls-1" d="M227.75,181.67v-8.52h26.34v8.52h-26.34Z"/>
  <path class="cls-1" d="M267.08,203.53v-61.46h38.19v9.31h-28.01v17.21h23.97v9.31h-23.97v25.64h-10.18Z"/>
  <path class="cls-1" d="M316.25,203.53v-61.46h10.18v61.46h-10.18Z"/>
  <g>
    <path class="cls-1" d="M370.13,172.01c-3.53,5.33-16.53,24.62-19.66,30.18-.85,1.46-2.72,1.77-4.22.69l-4.09-2.94c-1.51-1.14-1.81-3.01-.69-4.22,4.33-4.8,18.14-23.62,22.12-28.72l6.43-8.57c2.16-3,4.31-6.06,6.34-9.09-1.18-4.68-9.7-4.92-12.47-4.89-.54.03-.96-.38-.98-.86.03-.19.01-.3-.02-.48-.07-.41.17-.81.56-.99,10.57-4.55,17.71.13,17.71.13,0,0,6.81,4.91,7.37,5.36.41.29.44,1.25.43,1.55l.03.18c.09.53.49,2.63,1.37,3.27.27.2,1.08.37,1.76.44l.64-.89c.39-.55,1.21-.68,1.76-.29l2.59,1.87c.55.39.68,1.21.23,1.77l-4.86,6.75c-.39.55-1.21.68-1.76.29l-2.59-1.87c-.55-.39-.68-1.21-.29-1.76l.68-1.01c-1.57-2.63-4.45-3.31-6.11-3.16-2.03,2.68-4,5.34-5.97,8.07l-6.32,9.21Z"/>
    <path class="cls-1" d="M355.11,153.86c1.41-3,1.25-6.59-.73-9.51-2.21-3.32-6.1-4.78-9.81-4.04-.5.09-.68.72-.32,1.03l4.4,3.99-1.05,5.82-5.38,1-4.18-4.49c-.35-.37-.99-.19-1.09.34-.48,2.51.1,5.22,1.79,7.47,2.03,2.68,5.22,4.01,8.35,3.76.55-.02,1.11.21,1.44.7,6.91,9.77,21.39,31.11,27.67,41.36,1.47,2.45,4.89,2.92,7.31,1.27,2.43-1.65,3.18-4.96,1.5-7.27-7.26-9.54-23.22-29.76-29.84-39.78-.26-.53-.33-1.15-.05-1.64ZM381.8,200.06c-.97.66-2.26.42-2.92-.55s-.42-2.26.55-2.92,2.26-.42,2.92.55c.6.96.36,2.24-.55,2.92Z"/>
  </g>
  <g>
    <g>
      <polygon class="cls-2" points="284.69 4.34 176.36 121.29 111.37 125.9 160.61 80.77 113.66 78.13 83.13 17.19 193.43 39.59 284.69 4.34"/>
      <polygon class="cls-2" points="333.28 123.6 333.28 111.74 280.1 26.74 284.69 18.5 350.02 123.6 333.28 123.6"/>
      <polygon class="cls-2" points="90.36 45.19 80.18 93.62 65.41 93.62 80.18 26.74 90.36 45.19"/>
      <polygon class="cls-2" points="80.18 105.81 80.18 131.5 49.98 131.5 80.18 105.81"/>
    </g>
    <g>
      <rect class="cls-2" x="246.12" y="70.02" width="16.29" height="16.29"/>
      <rect class="cls-2" x="268.93" y="70.02" width="16.29" height="16.29"/>
      <rect class="cls-2" x="246.12" y="92.23" width="16.29" height="16.29"/>
      <rect class="cls-2" x="268.93" y="92.23" width="16.29" height="16.29"/>
    </g>
  </g>
</svg>